<svg width="11" height="18" viewBox="0 0 11 18" fill="none" xmlns="http://www.w3.org/2000/svg">
<path d="M10.1517 10.125H7.41443V18H3.7648V10.125H0.808594V6.85547H3.7648V4.39453C3.7648 3.45703 3.94728 2.66016 4.31224 2.00391C4.67721 1.34766 5.18816 0.855469 5.84509 0.527344C6.52636 0.175781 7.30494 0 8.18086 0C8.57015 0 8.98378 0.0234375 9.42173 0.0703125C9.85969 0.09375 10.2003 0.128906 10.4436 0.175781L10.8086 0.210938V2.98828H9.34874C8.66747 2.98828 8.16869 3.16406 7.85239 3.51562C7.56042 3.84375 7.41443 4.25391 7.41443 4.74609V6.85547H10.6626L10.1517 10.125Z" fill="#999999"/>
</svg>
