<svg width="74" height="74" viewBox="0 0 74 74" fill="none" xmlns="http://www.w3.org/2000/svg">
<path fill-rule="evenodd" clip-rule="evenodd" d="M28.8324 51.1821L54.1676 37L28.8324 22.8179L28.8324 51.1821ZM55.069 38.5804C56.3103 37.8856 56.3103 36.1144 55.0691 35.4196L29.7339 21.2375C28.5124 20.5537 27 21.428 27 22.8179L27 51.1821C27 52.572 28.5124 53.4463 29.7339 52.7625L55.069 38.5804Z" fill="white" fill-opacity="0.7"/>
<path fill-rule="evenodd" clip-rule="evenodd" d="M37 72.15C56.4128 72.15 72.15 56.4128 72.15 37C72.15 17.5872 56.4128 1.85 37 1.85C17.5872 1.85 1.85 17.5872 1.85 37C1.85 56.4128 17.5872 72.15 37 72.15ZM37 74C57.4345 74 74 57.4345 74 37C74 16.5655 57.4345 0 37 0C16.5655 0 0 16.5655 0 37C0 57.4345 16.5655 74 37 74Z" fill="white" fill-opacity="0.7"/>
</svg>
