<svg width="44" height="44" viewBox="0 0 44 44" fill="none" xmlns="http://www.w3.org/2000/svg">
<path fill-rule="evenodd" clip-rule="evenodd" d="M17.1436 30.4327L32.2078 22.0001L17.1436 13.5675L17.1436 30.4327ZM32.7438 22.9398C33.4818 22.5266 33.4818 21.4735 32.7438 21.0604L17.6796 12.6278C16.9533 12.2212 16.0541 12.7411 16.0541 13.5675L16.0541 30.4327C16.0541 31.2591 16.9533 31.779 17.6796 31.3724L32.7438 22.9398Z" fill="white" fill-opacity="0.7"/>
<path fill-rule="evenodd" clip-rule="evenodd" d="M22.0001 42.9C33.5428 42.9 42.9001 33.5428 42.9001 22C42.9001 10.4572 33.5428 1.1 22.0001 1.1C10.4573 1.1 1.10009 10.4572 1.10009 22C1.10009 33.5428 10.4573 42.9 22.0001 42.9ZM22.0001 44C34.1504 44 44.0001 34.1503 44.0001 22C44.0001 9.84974 34.1504 0 22.0001 0C9.84983 0 9.15527e-05 9.84974 9.15527e-05 22C9.15527e-05 34.1503 9.84983 44 22.0001 44Z" fill="white" fill-opacity="0.7"/>
</svg>
