<svg width="14" height="10" viewBox="0 0 14 10" fill="none" xmlns="http://www.w3.org/2000/svg">
<path d="M4.75781 9.79058L0.191406 5.44503C0.0638021 5.32286 0 5.16579 0 4.97382C0 4.78185 0.0638021 4.62478 0.191406 4.50262L1.20313 3.56021C1.33073 3.42059 1.48568 3.35079 1.66797 3.35079C1.86849 3.35079 2.04167 3.42059 2.1875 3.56021L5.25 6.49215L11.8125 0.209424C11.9583 0.069808 12.1224 0 12.3047 0C12.5052 0 12.6693 0.069808 12.7969 0.209424L13.8086 1.15183C13.9362 1.274 14 1.43106 14 1.62304C14 1.81501 13.9362 1.97208 13.8086 2.09424L5.74219 9.79058C5.61458 9.93019 5.45052 10 5.25 10C5.04948 10 4.88542 9.93019 4.75781 9.79058Z" fill="#333333"/>
</svg>
