<svg width="20" height="20" viewBox="0 0 20 20" fill="none" xmlns="http://www.w3.org/2000/svg">
<path fill-rule="evenodd" clip-rule="evenodd" d="M13.047 12.1497C15.5427 9.2565 15.4118 4.89607 12.6543 2.15682C9.75949 -0.718939 5.066 -0.718939 2.17114 2.15682C-0.723714 5.03257 -0.723714 9.6951 2.17114 12.5709C4.74553 15.1283 8.74236 15.4114 11.6317 13.4202L18.3316 19.7304C18.7133 20.0899 19.3321 20.0899 19.7138 19.7304C20.0955 19.3709 20.0955 18.7881 19.7138 18.4286L13.047 12.1497ZM11.3997 3.45856C13.6017 5.61539 13.6017 9.11229 11.3997 11.2691C9.19776 13.4259 5.62766 13.4259 3.42568 11.2691C1.22371 9.11229 1.22371 5.61539 3.42568 3.45856C5.62766 1.30174 9.19776 1.30174 11.3997 3.45856Z" fill="#0C4DA2" fill-opacity="0.4"/>
</svg>
