<svg width="18" height="15" viewBox="0 0 18 15" fill="none" xmlns="http://www.w3.org/2000/svg">
<path d="M16.1367 3.75C16.1602 3.84615 16.1719 4.0024 16.1719 4.21875C16.1719 5.49279 15.9375 6.76683 15.4688 8.04087C15 9.29087 14.332 10.4447 13.4648 11.5024C12.6211 12.5361 11.5195 13.3774 10.1602 14.0264C8.80078 14.6755 7.30078 15 5.66016 15C3.59766 15 1.71094 14.4351 0 13.3053C0.257812 13.3293 0.550781 13.3413 0.878906 13.3413C2.58984 13.3413 4.125 12.8005 5.48438 11.7188C4.66406 11.7188 3.9375 11.4784 3.30469 10.9976C2.69531 10.4928 2.27344 9.86779 2.03906 9.1226C2.27344 9.14664 2.49609 9.15865 2.70703 9.15865C3.03516 9.15865 3.36328 9.1226 3.69141 9.05048C3.12891 8.93029 2.625 8.6899 2.17969 8.32933C1.73438 7.96875 1.38281 7.53606 1.125 7.03125C0.867188 6.5024 0.738281 5.9375 0.738281 5.33654V5.26442C1.25391 5.57692 1.80469 5.74519 2.39062 5.76923C1.28906 5 0.738281 3.94231 0.738281 2.59615C0.738281 1.92308 0.914062 1.28606 1.26562 0.685096C2.17969 1.86298 3.29297 2.80048 4.60547 3.4976C5.94141 4.19471 7.35938 4.57933 8.85938 4.65144C8.8125 4.36298 8.78906 4.07452 8.78906 3.78606C8.78906 2.7524 9.14062 1.86298 9.84375 1.11779C10.5703 0.372596 11.4375 0 12.4453 0C13.5234 0 14.4258 0.396635 15.1523 1.1899C15.9961 1.02163 16.7812 0.721154 17.5078 0.288462C17.2266 1.17788 16.6875 1.875 15.8906 2.37981C16.5938 2.28365 17.2969 2.07933 18 1.76683C17.4844 2.53606 16.8633 3.19712 16.1367 3.75Z" fill="#999999"/>
</svg>
