<svg width="20" height="11" viewBox="0 0 20 11" fill="none" xmlns="http://www.w3.org/2000/svg">
<path d="M19.229 0.75625C19.1584 1.1 18.8761 1.66146 18.3821 2.44062C17.9116 3.21979 17.4764 3.90729 17.0764 4.50313C16.6765 5.07604 16.4648 5.37396 16.4413 5.39687C16.3001 5.60313 16.2296 5.75208 16.2296 5.84375C16.2296 5.93542 16.3001 6.09583 16.4413 6.325C16.4413 6.325 16.5119 6.40521 16.653 6.56563C16.8177 6.72604 17.0059 6.90938 17.2176 7.11562C17.4293 7.32188 17.6646 7.5625 17.9233 7.8375C18.1821 8.1125 18.4174 8.3875 18.6291 8.6625C18.8643 8.91458 19.0643 9.17813 19.229 9.45312C19.4172 9.72812 19.5465 9.95729 19.6171 10.1406C19.7818 10.7135 19.5465 11 18.9114 11H16.8294C16.6648 11 16.5236 10.9771 16.406 10.9312C16.2884 10.8854 16.159 10.8052 16.0178 10.6906C15.8767 10.576 15.7473 10.45 15.6297 10.3125C15.5121 10.175 15.3356 9.98021 15.1004 9.72812C14.8651 9.47604 14.6299 9.23542 14.3946 9.00625C13.4536 8.13542 12.7597 7.7 12.3127 7.7C12.0304 7.7 11.8657 7.78021 11.8187 7.94063C11.7716 8.10104 11.7481 8.55937 11.7481 9.31563C11.7716 9.68229 11.7834 9.98021 11.7834 10.2094C11.7834 10.4844 11.6893 10.6906 11.5011 10.8281C11.3129 10.9427 10.9012 11 10.266 11C9.16039 11 8.04296 10.6792 6.91378 10.0375C5.78459 9.39583 4.79655 8.47917 3.94966 7.2875C3.14982 6.23333 2.47937 5.19063 1.9383 4.15938C1.42076 3.10521 1.07965 2.30312 0.914978 1.75312C0.750305 1.20312 0.667969 0.813542 0.667969 0.584375C0.667969 0.194792 0.903216 0 1.37371 0H3.45565C3.71442 0 3.90262 0.0572917 4.02024 0.171875C4.16139 0.286458 4.27901 0.492708 4.37311 0.790625C4.86713 2.18854 5.46701 3.4375 6.17275 4.5375C6.90201 5.6375 7.45484 6.1875 7.83124 6.1875C7.97239 6.1875 8.06649 6.14167 8.11354 6.05C8.18411 5.93542 8.2194 5.72917 8.2194 5.43125V2.44062C8.19587 2.11979 8.13706 1.84479 8.04296 1.61563C7.94886 1.38646 7.85476 1.22604 7.76067 1.13437C7.66657 1.01979 7.57247 0.905208 7.47837 0.790625C7.4078 0.676042 7.37251 0.572917 7.37251 0.48125C7.37251 0.389583 7.39603 0.309375 7.44308 0.240625C7.49013 0.171875 7.54894 0.114583 7.61952 0.06875C7.71362 0.0229167 7.80771 0 7.90181 0H11.1835C11.5599 0 11.7481 0.252083 11.7481 0.75625V4.74375C11.7481 5.13333 11.854 5.32812 12.0657 5.32812C12.3009 5.32812 12.6303 5.12187 13.0537 4.70937C13.5007 4.22813 13.9359 3.64375 14.3593 2.95625C14.7828 2.26875 15.1004 1.69583 15.3121 1.2375L15.6297 0.584375C15.7944 0.194792 16.0884 0 16.5119 0H18.5938C19.1584 0 19.3701 0.252083 19.229 0.75625Z" fill="#999999"/>
</svg>
