<svg width="12" height="18" viewBox="0 0 12 18" fill="none" xmlns="http://www.w3.org/2000/svg">
<path d="M9.82086 11.7422C9.03491 12.2344 7.96316 12.5508 6.60561 12.6914L7.35583 13.4297L10.0709 16.1016C10.3806 16.4062 10.4639 16.7578 10.321 17.1562C10.1781 17.5781 9.91613 17.8359 9.53506 17.9297C9.17781 18.0469 8.82056 17.9766 8.46331 17.7188C7.98698 17.25 7.07003 16.3477 5.71248 15.0117L2.99738 17.6836C2.68777 17.9883 2.31861 18.0703 1.88991 17.9297C1.48502 17.7891 1.22304 17.5312 1.10396 17.1562C1.00869 16.8047 1.10396 16.4531 1.38976 16.1016C3.19982 14.2969 4.10486 13.3945 4.10486 13.3945L4.85508 12.6914C3.4499 12.5508 2.36624 12.2344 1.60411 11.7422C0.961058 11.3203 0.544266 10.9805 0.353732 10.7227C0.163199 10.4414 0.175107 10.0898 0.389457 9.66797C0.532357 9.36328 0.758616 9.17578 1.06823 9.10547C1.40167 9.01172 1.81846 9.12891 2.31861 9.45703C2.41387 9.52734 2.55677 9.62109 2.74731 9.73828C2.93784 9.85547 3.31891 10.0078 3.89051 10.1953C4.48592 10.3828 5.09325 10.4766 5.71248 10.4766C6.33172 10.4766 6.92713 10.3945 7.49873 10.2305C8.07033 10.0664 8.47522 9.89062 8.71338 9.70312L9.10636 9.45703C9.60651 9.12891 10.0114 9.01172 10.321 9.10547C10.6544 9.17578 10.9045 9.36328 11.0712 9.66797C11.1427 9.92578 11.1903 10.125 11.2141 10.2656C11.238 10.4062 11.1784 10.5703 11.0355 10.7578C10.8926 10.9453 10.7378 11.1094 10.5711 11.25C10.4044 11.3672 10.1543 11.5312 9.82086 11.7422ZM1.06823 4.57031C1.06823 3.30469 1.52075 2.22656 2.42578 1.33594C3.33082 0.445312 4.42638 0 5.71248 0C6.54607 0 7.32011 0.210938 8.03461 0.632812C8.74911 1.03125 9.3088 1.58203 9.71368 2.28516C10.1424 2.96484 10.3567 3.72656 10.3567 4.57031C10.3567 5.8125 9.90422 6.87891 8.99918 7.76953C8.09415 8.66016 6.99858 9.10547 5.71248 9.10547C4.42638 9.10547 3.33082 8.66016 2.42578 7.76953C1.52075 6.87891 1.06823 5.8125 1.06823 4.57031ZM3.42608 4.57031C3.42608 5.17969 3.65234 5.70703 4.10486 6.15234C4.55737 6.57422 5.09325 6.78516 5.71248 6.78516C6.33172 6.78516 6.86759 6.57422 7.32011 6.15234C7.77263 5.70703 7.99888 5.17969 7.99888 4.57031C7.99888 3.9375 7.77263 3.41016 7.32011 2.98828C6.86759 2.54297 6.33172 2.32031 5.71248 2.32031C5.3076 2.32031 4.92653 2.42578 4.56928 2.63672C4.21203 2.82422 3.92623 3.09375 3.71188 3.44531C3.52135 3.77344 3.42608 4.14844 3.42608 4.57031Z" fill="#999999"/>
</svg>
