<svg width="20" height="20" viewBox="0 0 20 20" fill="none" xmlns="http://www.w3.org/2000/svg">
<circle cx="10" cy="10" r="10" fill="#E5E5E5"/>
<path d="M10.1019 5.06C10.7552 5.06 11.3105 5.16733 11.7679 5.382C12.2345 5.58733 12.5845 5.86733 12.8179 6.222C13.0512 6.57667 13.1679 6.96867 13.1679 7.398C13.1679 7.78067 13.0979 8.10733 12.9579 8.378C12.8272 8.64867 12.6685 8.868 12.4819 9.036C12.2952 9.204 12.0479 9.4 11.7399 9.624C11.3665 9.876 11.0912 10.1047 10.9139 10.31C10.7365 10.506 10.6479 10.7627 10.6479 11.08V11.43H8.63188V10.996C8.63188 10.5573 8.69722 10.1887 8.82788 9.89C8.96788 9.582 9.13122 9.344 9.31788 9.176C9.51388 8.99867 9.75655 8.80733 10.0459 8.602C10.3259 8.41533 10.5312 8.252 10.6619 8.112C10.7925 7.972 10.8579 7.79933 10.8579 7.594C10.8579 7.342 10.7692 7.146 10.5919 7.006C10.4239 6.866 10.1859 6.796 9.87788 6.796C9.28988 6.796 8.74388 7.08067 8.23988 7.65L6.82588 6.558C7.67522 5.55933 8.76722 5.06 10.1019 5.06ZM9.66788 12.704C10.0132 12.704 10.3072 12.83 10.5499 13.082C10.8019 13.3247 10.9279 13.6187 10.9279 13.964C10.9279 14.3187 10.8019 14.622 10.5499 14.874C10.3072 15.1167 10.0132 15.238 9.66788 15.238C9.32255 15.238 9.02388 15.1167 8.77188 14.874C8.52922 14.622 8.40788 14.3187 8.40788 13.964C8.40788 13.6187 8.52922 13.3247 8.77188 13.082C9.02388 12.83 9.32255 12.704 9.66788 12.704Z" fill="#999999"/>
</svg>
