<svg width="20" height="13" viewBox="0 0 20 13" fill="none" xmlns="http://www.w3.org/2000/svg">
<path d="M19.1446 2.03125C19.2142 2.30208 19.2722 2.64062 19.3186 3.04688C19.3881 3.45312 19.4345 3.85938 19.4577 4.26562C19.4809 4.64931 19.4925 5.01042 19.4925 5.34896C19.5157 5.6875 19.5273 5.96962 19.5273 6.19531V6.5C19.5273 8.53125 19.3997 10.0321 19.1446 11.0026C19.0286 11.3863 18.8198 11.7248 18.5182 12.0182C18.2166 12.3116 17.857 12.5148 17.4394 12.6276C16.9987 12.7405 16.1635 12.8307 14.9339 12.8984C13.7044 12.9436 12.5792 12.9774 11.5585 13H10.0273C6.06031 13 3.58961 12.8759 2.61526 12.6276C1.71049 12.3793 1.14212 11.8377 0.910128 11.0026C0.794133 10.5738 0.701336 9.98698 0.631739 9.24219C0.585341 8.47483 0.550543 7.8316 0.527344 7.3125V6.5C0.527344 4.49132 0.654938 3.00174 0.910128 2.03125C1.02612 1.625 1.23491 1.27517 1.5365 0.981771C1.83809 0.688368 2.19767 0.485243 2.61526 0.372396C3.05604 0.259549 3.8912 0.180556 5.12075 0.135417C6.3503 0.0677083 7.47545 0.0225694 8.49621 0H10.0273C13.9944 0 16.4651 0.124132 17.4394 0.372396C17.857 0.485243 18.2166 0.688368 18.5182 0.981771C18.8198 1.27517 19.0286 1.625 19.1446 2.03125ZM8.07863 9.27604L13.0548 6.5L8.07863 3.75781V9.27604Z" fill="#999999"/>
</svg>
